<svg height="35" xmlns="http://www.w3.org/2000/svg" viewBox="0 0 171.73633 35"><title>orthemes_logo_dark</title><path d="M16.18265,35a13.52565,13.52565,0,0,1-1.54762-.15476c-5.964-.94652-12.01986-6.011-13.28039-12.18135-.14354-.69755-.22429-1.40632-.33868-2.1106a17.21046,17.21046,0,0,1,.074-2.49862A20.32012,20.32012,0,0,1,3.5572,11.01636,23.11081,23.11081,0,0,1,9.90469,4.882a26.8533,26.8533,0,0,1,9.75-3.78606A49.764,49.764,0,0,1,28.00737.07535a53.10146,53.10146,0,0,1,12.603.83213A16.638,16.638,0,0,1,44.937,2.25324a2.9943,2.9943,0,0,1,1.70238,2.15545,13.35611,13.35611,0,0,1,.32074,2.24293,40.42118,40.42118,0,0,1-.28036,6.09628,5.03762,5.03762,0,0,1-.53831,1.73379,46.76667,46.76667,0,0,1-4.06194,6.70187,32.81617,32.81617,0,0,1-9.33059,8.6577,33.59223,33.59223,0,0,1-14.7024,5.05332C17.2458,34.96411,16.59086,35,16.18265,35Z" transform="translate(-1 0)" fill="#83b641"/><path d="M30.63232,21.42334a12.312,12.312,0,0,1-.67382,4.19287,9.58414,9.58414,0,0,1-1.89063,3.21973A8.316,8.316,0,0,1,25.167,30.91357a9.584,9.584,0,0,1-7.3374,0,8.31347,8.31347,0,0,1-2.90137-2.07763,9.57619,9.57619,0,0,1-1.89062-3.21973,12.3118,12.3118,0,0,1-.67383-4.19287,12.35807,12.35807,0,0,1,.67383-4.17383,9.54948,9.54948,0,0,1,1.89062-3.23828,8.31362,8.31362,0,0,1,2.90137-2.07764,9.584,9.584,0,0,1,7.3374,0,8.31617,8.31617,0,0,1,2.90088,2.07764,9.55732,9.55732,0,0,1,1.89063,3.23828A12.35832,12.35832,0,0,1,30.63232,21.42334Zm-3.63134,0a8.37926,8.37926,0,0,0-1.47852-5.22217,4.8017,4.8017,0,0,0-4.02441-1.92773,4.80046,4.80046,0,0,0-4.02442,1.92773,8.37616,8.37616,0,0,0-1.47851,5.22217A8.37477,8.37477,0,0,0,17.47363,26.646a4.79918,4.79918,0,0,0,4.02442,1.92773A4.80042,4.80042,0,0,0,25.52246,26.646,8.37787,8.37787,0,0,0,27.001,21.42334Z" transform="translate(-1 0)"/><path d="M42.72412,11.27832q.449,0,1.0293.05615.58008.0564,1.1416.14991.56177.09375,1.02978.187a6.33384,6.33384,0,0,1,.69239.16845l-.59912,3.03223a11.359,11.359,0,0,0-3.81836-.56152,9.15117,9.15117,0,0,0-1.92774.20605q-.95435.20655-1.2539.28076V31.15674H35.53613V12.51367a23.71608,23.71608,0,0,1,3.06983-.84228A19.74005,19.74005,0,0,1,42.72412,11.27832Z" transform="translate(-1 0)"/><path d="M53.24316,11.69043h7.37452v2.91992H53.24316v8.98438a10.789,10.789,0,0,0,.22461,2.41455,3.61437,3.61437,0,0,0,.67383,1.49756,2.42522,2.42522,0,0,0,1.12305.76757,4.98578,4.98578,0,0,0,1.57226.22461,7.37948,7.37948,0,0,0,2.52686-.35595q.95434-.35523,1.3291-.50537l.67383,2.88281a12.93976,12.93976,0,0,1-1.83447.65478,10.42938,10.42938,0,0,1-2.99512.39307,9.07633,9.07633,0,0,1-3.27539-.50537,4.7704,4.7704,0,0,1-2.07764-1.51611,6.06077,6.06077,0,0,1-1.10449-2.48926,16.39061,16.39061,0,0,1-.31836-3.4253V6.26221l3.48193-.59912Z" transform="translate(-1 0)"/><path d="M65.03467,31.15674V2.70557l3.48193-.59864v9.95752a11.81811,11.81811,0,0,1,2.07764-.58007,11.96906,11.96906,0,0,1,2.18994-.20606,9.87255,9.87255,0,0,1,3.856.65527,6.0371,6.0371,0,0,1,2.45166,1.83448,7.09728,7.09728,0,0,1,1.2915,2.82617,16.40513,16.40513,0,0,1,.37451,3.63135V31.15674H77.27637V20.97412a16.67123,16.67123,0,0,0-.24317-3.06933A5.1952,5.1952,0,0,0,76.228,15.8457a3.18885,3.18885,0,0,0-1.49756-1.14209,6.58624,6.58624,0,0,0-2.3208-.35547,9.47072,9.47072,0,0,0-1.16065.07471q-.59912.07544-1.1416.16846-.54345.09448-.97314.206a5.8331,5.8331,0,0,0-.61768.187V31.15674Z" transform="translate(-1 0)"/><path d="M85.32471,21.46094a12.42194,12.42194,0,0,1,.74853-4.51123A9.43284,9.43284,0,0,1,88.05762,13.749a8.06484,8.06484,0,0,1,2.84521-1.90918,8.893,8.893,0,0,1,3.294-.63623,7.49534,7.49534,0,0,1,6.02734,2.45215q2.09619,2.45215,2.09619,7.46826v.58008a5.40115,5.40115,0,0,1-.03711.65528H88.95605a7.12592,7.12592,0,0,0,1.75928,4.60449,6.44056,6.44056,0,0,0,4.792,1.57226,12.7862,12.7862,0,0,0,3.08838-.31787,11.13225,11.13225,0,0,0,1.89063-.61767l.48633,2.91992a10.33185,10.33185,0,0,1-2.22705.71094,15.84059,15.84059,0,0,1-3.6128.37451,11.46441,11.46441,0,0,1-4.39843-.76758,8.2,8.2,0,0,1-3.05127-2.11475,8.62372,8.62372,0,0,1-1.77832-3.20117A13.52306,13.52306,0,0,1,85.32471,21.46094Zm13.36474-1.90918a5.84632,5.84632,0,0,0-1.1792-3.87451,4.06155,4.06155,0,0,0-3.35058-1.51612,4.59483,4.59483,0,0,0-2.11524.46778,4.995,4.995,0,0,0-1.55371,1.21679,5.59723,5.59723,0,0,0-.9917,1.72217,8.47781,8.47781,0,0,0-.46826,1.98389Z" transform="translate(-1 0)"/><path d="M107.33643,12.252q1.19823-.29955,3.16357-.63672a27.1852,27.1852,0,0,1,4.54834-.33691,8.55982,8.55982,0,0,1,3.14453.50537,5.52347,5.52347,0,0,1,2.13379,1.479q.26148-.18678.82373-.52442a9.04591,9.04591,0,0,1,1.38525-.65478,14.60719,14.60719,0,0,1,1.834-.56153,9.26363,9.26363,0,0,1,2.17139-.24365,8.82287,8.82287,0,0,1,3.66894.65527,5.27334,5.27334,0,0,1,2.227,1.853,7.21234,7.21234,0,0,1,1.08594,2.84522,21.45707,21.45707,0,0,1,.28076,3.59375V31.15674h-3.48144V20.97412a22.27726,22.27726,0,0,0-.16846-2.957,5.71868,5.71868,0,0,0-.63672-2.05908,2.92117,2.92117,0,0,0-1.27246-1.2168,4.74763,4.74763,0,0,0-2.07813-.39307,7.71755,7.71755,0,0,0-2.90087.46778,5.71335,5.71335,0,0,0-1.55372.84228,12.94641,12.94641,0,0,1,.44922,2.13428,19.05464,19.05464,0,0,1,.14991,2.43311V31.15674h-3.48145V20.97412a20.11148,20.11148,0,0,0-.1875-2.957,5.98343,5.98343,0,0,0-.65479-2.05908,2.92484,2.92484,0,0,0-1.27294-1.2168,4.645,4.645,0,0,0-2.04053-.39307q-.52441,0-1.123.0376-.59912.03735-1.1416.09326c-.3623.0376-.69238.08155-.99219.13135-.29931.05029-.49951.0874-.59863.11231V31.15674h-3.48193Z" transform="translate(-1 0)"/><path d="M138.48291,21.46094a12.42172,12.42172,0,0,1,.74854-4.51123,9.43267,9.43267,0,0,1,1.98437-3.20069,8.06479,8.06479,0,0,1,2.84522-1.90918,8.89286,8.89286,0,0,1,3.29394-.63623,7.49531,7.49531,0,0,1,6.02734,2.45215q2.0962,2.45215,2.0962,7.46826v.58008a5.40318,5.40318,0,0,1-.03711.65528H142.11426a7.12587,7.12587,0,0,0,1.75928,4.60449,6.44053,6.44053,0,0,0,4.792,1.57226,12.78626,12.78626,0,0,0,3.08838-.31787,11.13208,11.13208,0,0,0,1.89062-.61767l.48633,2.91992a10.33165,10.33165,0,0,1-2.22705.71094,15.84056,15.84056,0,0,1-3.61279.37451,11.46442,11.46442,0,0,1-4.39844-.76758,8.20008,8.20008,0,0,1-3.05127-2.11475,8.62386,8.62386,0,0,1-1.77832-3.20117A13.52306,13.52306,0,0,1,138.48291,21.46094Zm13.36475-1.90918a5.84643,5.84643,0,0,0-1.1792-3.87451,4.06158,4.06158,0,0,0-3.35059-1.51612,4.59476,4.59476,0,0,0-2.11523.46778,4.99473,4.99473,0,0,0-1.55371,1.21679,5.59683,5.59683,0,0,0-.9917,1.72217,8.47733,8.47733,0,0,0-.46827,1.98389Z" transform="translate(-1 0)"/><path d="M165.02441,28.64844a6.85289,6.85289,0,0,0,3.16358-.56153,1.89876,1.89876,0,0,0,1.0293-1.79687,2.3867,2.3867,0,0,0-1.01075-2.02149A16.04344,16.04344,0,0,0,164.875,22.584q-1.12353-.449-2.15283-.917a7.528,7.528,0,0,1-1.77832-1.10449,4.81556,4.81556,0,0,1-1.19776-1.53467,4.90819,4.90819,0,0,1-.44921-2.209,4.95811,4.95811,0,0,1,1.90917-4.09912,8.14748,8.14748,0,0,1,5.20362-1.51612,14.66353,14.66353,0,0,1,1.647.09375q.82325.09375,1.53516.22461.71044.13112,1.2539.28076.542.14942.84229.26172l-.63623,2.99512a8.80618,8.80618,0,0,0-1.75977-.61768,11.36286,11.36286,0,0,0-2.88232-.31835,5.328,5.328,0,0,0-2.54541.58007,1.92347,1.92347,0,0,0-1.08594,1.81592,2.47369,2.47369,0,0,0,.24365,1.123,2.58431,2.58431,0,0,0,.74854.87988,6.159,6.159,0,0,0,1.2539.73q.74855.33691,1.79688.71094,1.385.52515,2.4707,1.02978a7.75173,7.75173,0,0,1,1.85352,1.1792,4.53311,4.53311,0,0,1,1.1792,1.62842,5.91553,5.91553,0,0,1,.41162,2.33936,4.64194,4.64194,0,0,1-2.00293,4.08056,9.96844,9.96844,0,0,1-5.709,1.38526,14.93432,14.93432,0,0,1-4.043-.43067q-1.45972-.42993-1.98389-.65478l.63623-2.99512q.59838.22485,1.90918.67383A11.00527,11.00527,0,0,0,165.02441,28.64844Z" transform="translate(-1 0)"/><path d="M155.15869,6.63916a.62492.62492,0,0,1-.16553.43213.64314.64314,0,0,1-.90087,0,.64682.64682,0,0,1,0-.86426.64314.64314,0,0,1,.90087,0A.62492.62492,0,0,1,155.15869,6.63916Z" transform="translate(-1 0)"/><path d="M158.4873,7.24609a2.60273,2.60273,0,0,1-1.01611-.18408,2.04051,2.04051,0,0,1-.73584-.51465,2.13315,2.13315,0,0,1-.4458-.78613,3.26144,3.26144,0,0,1-.14746-1.00732,3.03992,3.03992,0,0,1,.16113-1.01123,2.386,2.386,0,0,1,.45508-.79541,2.0402,2.0402,0,0,1,.72217-.52393,2.32709,2.32709,0,0,1,.95166-.189,3.82264,3.82264,0,0,1,.64355.05517,2.99432,2.99432,0,0,1,.61621.17481l-.19335.72656a2.05764,2.05764,0,0,0-.44581-.147,2.50281,2.50281,0,0,0-.53808-.05518A1.35962,1.35962,0,0,0,157.416,3.439a1.98686,1.98686,0,0,0-.38184,1.315,2.70761,2.70761,0,0,0,.0874.70849,1.458,1.458,0,0,0,.27588.55127,1.23146,1.23146,0,0,0,.48291.35449,1.84746,1.84746,0,0,0,.71729.124,2.70915,2.70915,0,0,0,.61572-.06446,2.24321,2.24321,0,0,0,.43262-.13818l.11914.71729a.87271.87271,0,0,1-.21143.0874,2.91248,2.91248,0,0,1-.3125.07373c-.1167.02148-.24072.03955-.37256.05517A3.34382,3.34382,0,0,1,158.4873,7.24609Z" transform="translate(-1 0)"/><path d="M164.78613,4.74512a3.0254,3.0254,0,0,1-.16552,1.02978,2.36141,2.36141,0,0,1-.46436.79053,2.04989,2.04989,0,0,1-.71289.51074,2.3553,2.3553,0,0,1-1.80225,0,2.04538,2.04538,0,0,1-.71289-.51074,2.3531,2.3531,0,0,1-.46435-.79053,3.02539,3.02539,0,0,1-.16553-1.02978,3.0356,3.0356,0,0,1,.16553-1.02539,2.34751,2.34751,0,0,1,.46435-.79541,2.03774,2.03774,0,0,1,.71289-.51026,2.34949,2.34949,0,0,1,1.80225,0,2.04222,2.04222,0,0,1,.71289.51026,2.35571,2.35571,0,0,1,.46436.79541A3.0356,3.0356,0,0,1,164.78613,4.74512Zm-.89209,0a2.0561,2.0561,0,0,0-.36328-1.28272,1.2684,1.2684,0,0,0-1.977,0,2.0561,2.0561,0,0,0-.36328,1.28272,2.057,2.057,0,0,0,.36328,1.28271,1.2684,1.2684,0,0,0,1.977,0A2.057,2.057,0,0,0,163.894,4.74512Z" transform="translate(-1 0)"/><path d="M165.99072,2.49219q.2937-.074.77686-.15625a6.67518,6.67518,0,0,1,1.11719-.083,2.10747,2.10747,0,0,1,.77246.124,1.3603,1.3603,0,0,1,.52392.36328q.06446-.0454.20264-.12841a2.2311,2.2311,0,0,1,.33984-.16114,3.50255,3.50255,0,0,1,.45069-.13769,2.26322,2.26322,0,0,1,.5332-.06006,2.16322,2.16322,0,0,1,.90137.16113,1.29418,1.29418,0,0,1,.54736.45508,1.77709,1.77709,0,0,1,.2666.69873,5.27565,5.27565,0,0,1,.06885.88281V7.13574h-.855v-2.501a5.50882,5.50882,0,0,0-.04151-.72657,1.41934,1.41934,0,0,0-.15625-.50586.71822.71822,0,0,0-.313-.29882,1.1636,1.1636,0,0,0-.51026-.09668,1.89084,1.89084,0,0,0-.7124.11523,1.409,1.409,0,0,0-.38184.20654,3.18021,3.18021,0,0,1,.11036.52442,4.6895,4.6895,0,0,1,.03662.59765V7.13574h-.855v-2.501a4.917,4.917,0,0,0-.0459-.72657,1.46855,1.46855,0,0,0-.16113-.50586.71714.71714,0,0,0-.3125-.29882,1.13929,1.13929,0,0,0-.501-.09668c-.08594,0-.17822.00341-.27588.00927-.09814.00635-.19189.01368-.28076.023s-.16992.02-.24365.03223c-.07325.01221-.12256.02148-.147.02783V7.13574h-.855Z" transform="translate(-1 0)"/></svg>